<svg width="85" height="37" viewBox="0 0 85 37" fill="none" xmlns="http://www.w3.org/2000/svg">
<path d="M6.58483 22.3229C5.45294 22.3229 4.47401 22.1853 3.64804 21.9099C2.82207 21.6499 2.17965 21.2522 1.72077 20.7169C1.2772 20.1815 1.05541 19.5085 1.05541 18.6978C1.05541 18.1166 1.20837 17.5736 1.51428 17.0688C1.83549 16.5641 2.28672 16.1205 2.86796 15.7381C3.44919 15.3404 4.14515 15.0116 4.95583 14.7515L6.10301 16.4952C5.43 16.6941 4.92524 16.9541 4.58873 17.2753C4.26752 17.5965 4.10691 17.956 4.10691 18.3537C4.10691 18.6596 4.21398 18.9196 4.42812 19.1338C4.64226 19.3479 4.93288 19.5085 5.29998 19.6156C5.68238 19.7226 6.10301 19.7762 6.56188 19.7762C7.00546 19.7762 7.38785 19.7226 7.70906 19.6156C8.04557 19.5085 8.3056 19.3479 8.48915 19.1338C8.68799 18.9349 8.78742 18.6902 8.78742 18.3996C8.78742 18.0172 8.6574 17.7113 8.39737 17.4818C8.13735 17.2524 7.60199 17.1071 6.79132 17.0459C6.04183 16.9847 5.36116 16.9006 4.74933 16.7935C4.1528 16.6711 3.61745 16.5258 3.14328 16.3576C2.68441 16.1893 2.28672 16.0058 1.95021 15.8069C1.6137 15.6081 1.35367 15.4092 1.17013 15.2104V14.6827L3.69393 11.9065L6.05712 12.6407L3.00562 15.7381L4.06102 13.9944C4.21398 14.0862 4.37459 14.1779 4.54284 14.2697C4.71109 14.3462 4.91759 14.415 5.16232 14.4762C5.40705 14.5374 5.71297 14.5986 6.08007 14.6597C6.44716 14.7056 6.92133 14.7592 7.50257 14.8204C8.4968 14.9121 9.31512 15.1033 9.95754 15.3939C10.6153 15.6693 11.0971 16.0517 11.403 16.5411C11.7242 17.0306 11.8848 17.6271 11.8848 18.3307C11.8848 19.019 11.6936 19.6691 11.3112 20.2809C10.9288 20.8928 10.3476 21.3822 9.5675 21.7493C8.78742 22.1317 7.79319 22.3229 6.58483 22.3229ZM6.60777 13.6502C5.64414 13.6502 4.81052 13.459 4.10691 13.0766C3.40331 12.6942 2.86031 12.1895 2.47791 11.5624C2.09552 10.9199 1.90432 10.201 1.90432 9.40565C1.90432 8.62557 2.09552 7.92197 2.47791 7.29484C2.86031 6.65242 3.40331 6.14001 4.10691 5.75762C4.81052 5.35993 5.64414 5.16108 6.60777 5.16108C7.5867 5.16108 8.42797 5.35993 9.13157 5.75762C9.83518 6.14001 10.3705 6.65242 10.7376 7.29484C11.1047 7.92197 11.2883 8.62557 11.2883 9.40565C11.2883 10.201 11.1047 10.9199 10.7376 11.5624C10.3705 12.1895 9.83518 12.6942 9.13157 13.0766C8.42797 13.459 7.5867 13.6502 6.60777 13.6502ZM6.60777 11.0576C7.12783 11.0576 7.55611 10.9199 7.89261 10.6446C8.22912 10.3693 8.39737 9.96395 8.39737 9.4286C8.39737 8.89325 8.22912 8.48791 7.89261 8.21258C7.55611 7.93726 7.12783 7.7996 6.60777 7.7996C6.08771 7.7996 5.65178 7.93726 5.29998 8.21258C4.96347 8.48791 4.79522 8.89325 4.79522 9.4286C4.79522 9.96395 4.96347 10.3693 5.29998 10.6446C5.65178 10.9199 6.08771 11.0576 6.60777 11.0576ZM8.53503 7.7996L8.03028 5.4364H12.8255V7.38661L8.53503 7.7996ZM13.1334 17V5.4364H16.1849L16.5062 7.54722C16.8121 7.05775 17.1715 6.63712 17.5845 6.28532C17.9975 5.93352 18.4717 5.65819 19.007 5.45935C19.5577 5.2605 20.1465 5.16108 20.7737 5.16108V8.80912H19.6265C19.1676 8.80912 18.747 8.86265 18.3646 8.96972C17.9975 9.0615 17.6763 9.22211 17.401 9.45154C17.1409 9.68098 16.9344 9.99454 16.7815 10.3922C16.6438 10.7746 16.575 11.2564 16.575 11.8377V17H13.1334ZM24.4199 17.2753C23.4563 17.2753 22.6533 17.1224 22.0108 16.8165C21.3837 16.5105 20.9172 16.0976 20.6113 15.5775C20.3207 15.0421 20.1753 14.4533 20.1753 13.8108C20.1753 13.1225 20.3436 12.5183 20.6801 11.9983C21.0319 11.4629 21.5749 11.0423 22.3091 10.7364C23.0433 10.4152 23.9687 10.2546 25.0853 10.2546H27.8844C27.8844 9.73451 27.8156 9.30623 27.6779 8.96972C27.5556 8.63322 27.3491 8.38084 27.0584 8.21258C26.7678 8.04433 26.3701 7.9602 25.8654 7.9602C25.33 7.9602 24.8788 8.06727 24.5117 8.28142C24.1446 8.49556 23.9152 8.83206 23.8234 9.29094H20.5195C20.596 8.46496 20.8637 7.74606 21.3225 7.13423C21.7967 6.5224 22.4238 6.04059 23.2039 5.68878C23.984 5.33698 24.8788 5.16108 25.8883 5.16108C26.9896 5.16108 27.9456 5.34463 28.7563 5.71173C29.5669 6.06353 30.1941 6.58359 30.6376 7.2719C31.0965 7.9602 31.326 8.81677 31.326 9.84158V17H28.458L28.045 15.3251C27.8768 15.6157 27.6779 15.8834 27.4485 16.1281C27.219 16.3576 26.9514 16.5641 26.6455 16.7476C26.3395 16.9159 26.003 17.0459 25.6359 17.1377C25.2688 17.2294 24.8635 17.2753 24.4199 17.2753ZM25.2688 14.6597C25.6359 14.6597 25.9571 14.5986 26.2325 14.4762C26.5078 14.3538 26.7449 14.1856 26.9437 13.9714C27.1426 13.7573 27.3032 13.5126 27.4255 13.2372C27.5632 12.9466 27.6626 12.6331 27.7238 12.2966V12.2736H25.4983C25.1159 12.2736 24.7947 12.3271 24.5346 12.4342C24.2899 12.526 24.1064 12.6637 23.984 12.8472C23.8616 13.0307 23.8004 13.2449 23.8004 13.4896C23.8004 13.7497 23.8616 13.9714 23.984 14.155C24.1217 14.3232 24.2976 14.4533 24.5117 14.545C24.7411 14.6215 24.9935 14.6597 25.2688 14.6597ZM31.8917 22.0476V5.4364H34.9432L35.3332 6.95068C35.5779 6.62947 35.8609 6.33121 36.1821 6.05588C36.5033 5.78056 36.8857 5.56642 37.3293 5.41346C37.7882 5.24521 38.3235 5.16108 38.9354 5.16108C40.0061 5.16108 40.9468 5.42876 41.7574 5.96411C42.5834 6.49946 43.2411 7.22601 43.7306 8.14375C44.22 9.0462 44.4648 10.0787 44.4648 11.2411C44.4648 12.4036 44.2124 13.4437 43.7076 14.3615C43.2182 15.2639 42.5605 15.9752 41.7345 16.4952C40.9085 17.0153 39.9831 17.2753 38.9583 17.2753C38.1323 17.2753 37.4211 17.13 36.8245 16.8394C36.228 16.5488 35.7309 16.1434 35.3332 15.6234V22.0476H31.8917ZM38.0864 14.2697C38.6371 14.2697 39.1266 14.1473 39.5548 13.9026C39.9984 13.6426 40.3426 13.2831 40.5873 12.8243C40.832 12.3654 40.9544 11.8377 40.9544 11.2411C40.9544 10.6446 40.832 10.1169 40.5873 9.65803C40.3426 9.19916 39.9984 8.83971 39.5548 8.57968C39.1266 8.30436 38.6371 8.1667 38.0864 8.1667C37.5205 8.1667 37.0157 8.30436 36.5722 8.57968C36.1439 8.83971 35.8074 9.19916 35.5626 9.65803C35.3179 10.1169 35.1955 10.637 35.1955 11.2182C35.1955 11.8147 35.3179 12.3424 35.5626 12.8013C35.8074 13.2602 36.1439 13.6196 36.5722 13.8797C37.0157 14.1397 37.5205 14.2697 38.0864 14.2697ZM44.8109 17V0.480577H48.2524V7.08835C48.6195 6.50711 49.1167 6.04059 49.7438 5.68878C50.3709 5.33698 51.1051 5.16108 51.9464 5.16108C52.9253 5.16108 53.7436 5.36757 54.4013 5.78056C55.0591 6.19354 55.5562 6.79773 55.8927 7.59311C56.2292 8.37319 56.3974 9.32153 56.3974 10.4381V17H52.9788V10.7593C52.9788 9.90277 52.7953 9.2374 52.4282 8.76323C52.0764 8.28906 51.5104 8.05198 50.7304 8.05198C50.2715 8.05198 49.8509 8.1667 49.4685 8.39613C49.0861 8.62557 48.7878 8.95443 48.5737 9.38271C48.3595 9.7957 48.2524 10.2928 48.2524 10.874V17H44.8109ZM57.0142 17V5.4364H60.4558V17H57.0142ZM58.735 4.10567C58.1232 4.10567 57.6261 3.92977 57.2437 3.57797C56.8613 3.22617 56.6701 2.78259 56.6701 2.24724C56.6701 1.69659 56.8613 1.24537 57.2437 0.893563C57.6261 0.541761 58.1232 0.365859 58.735 0.365859C59.3621 0.365859 59.8669 0.541761 60.2493 0.893563C60.647 1.24537 60.8458 1.69659 60.8458 2.24724C60.8458 2.78259 60.647 3.22617 60.2493 3.57797C59.8669 3.92977 59.3621 4.10567 58.735 4.10567ZM66.9071 17.2753C65.714 17.2753 64.6586 17.0153 63.7408 16.4952C62.8384 15.9752 62.1271 15.2639 61.6071 14.3615C61.1023 13.459 60.8499 12.4266 60.8499 11.2641C60.8499 10.071 61.1023 9.02326 61.6071 8.12081C62.1271 7.20306 62.8384 6.48416 63.7408 5.96411C64.6586 5.42876 65.714 5.16108 66.9071 5.16108C68.4213 5.16108 69.6909 5.55877 70.7157 6.35415C71.7558 7.14953 72.4135 8.25847 72.6889 9.68098H69.0408C68.9032 9.19151 68.6431 8.80912 68.2607 8.5338C67.8783 8.25847 67.4195 8.12081 66.8841 8.12081C66.3794 8.12081 65.9358 8.25082 65.5534 8.51085C65.1863 8.75558 64.8957 9.11504 64.6815 9.5892C64.4674 10.0481 64.3603 10.5911 64.3603 11.2182C64.3603 11.6924 64.4215 12.1207 64.5439 12.503C64.6662 12.8854 64.8345 13.2143 65.0486 13.4896C65.2781 13.7649 65.5457 13.9791 65.8517 14.132C66.1576 14.2697 66.5017 14.3385 66.8841 14.3385C67.2512 14.3385 67.5724 14.2774 67.8478 14.155C68.1384 14.0326 68.3831 13.8567 68.5819 13.6273C68.7961 13.3978 68.949 13.1149 69.0408 12.7784H72.6889C72.4135 14.155 71.7558 15.2486 70.7157 16.0593C69.6756 16.87 68.406 17.2753 66.9071 17.2753ZM77.8784 17.2753C76.7924 17.2753 75.8517 17.1071 75.0564 16.7706C74.2763 16.4188 73.6568 15.9446 73.1979 15.3481C72.7543 14.7515 72.502 14.0785 72.4408 13.329H75.8594C75.9206 13.589 76.0276 13.8261 76.1806 14.0403C76.3488 14.2391 76.5706 14.3997 76.846 14.5221C77.1366 14.6292 77.4578 14.6827 77.8096 14.6827C78.192 14.6827 78.4979 14.6368 78.7273 14.545C78.9721 14.438 79.1556 14.3003 79.278 14.132C79.4004 13.9638 79.4615 13.7879 79.4615 13.6043C79.4615 13.3137 79.3698 13.0919 79.1862 12.939C79.018 12.786 78.7656 12.6637 78.4291 12.5719C78.0926 12.4648 77.6872 12.3654 77.2131 12.2736C76.6624 12.1512 76.1118 12.0136 75.5611 11.8606C75.0258 11.6924 74.5439 11.4859 74.1157 11.2411C73.7027 10.9964 73.3662 10.6829 73.1061 10.3005C72.8614 9.90277 72.739 9.42095 72.739 8.85501C72.739 8.1667 72.9302 7.54722 73.3126 6.99657C73.695 6.43063 74.2457 5.98705 74.9646 5.66584C75.6835 5.32933 76.5553 5.16108 77.5802 5.16108C79.0333 5.16108 80.1728 5.48229 80.9988 6.12471C81.8247 6.76714 82.3142 7.63135 82.4672 8.71734H79.255C79.1633 8.41143 78.9721 8.18199 78.6815 8.02904C78.3908 7.86078 78.0237 7.77666 77.5802 7.77666C77.0754 7.77666 76.693 7.86078 76.433 8.02904C76.1729 8.19729 76.0429 8.41908 76.0429 8.6944C76.0429 8.87795 76.1271 9.0462 76.2953 9.19916C76.4789 9.33682 76.7389 9.45919 77.0754 9.56626C77.4119 9.67333 77.8249 9.7804 78.3144 9.88747C79.2474 10.0863 80.0504 10.3005 80.7234 10.5299C81.4117 10.7593 81.9471 11.0958 82.3295 11.5394C82.7119 11.9677 82.8954 12.5948 82.8801 13.4208C82.8954 14.1703 82.6966 14.8356 82.2836 15.4169C81.8859 15.9981 81.3123 16.457 80.5628 16.7935C79.8133 17.1147 78.9185 17.2753 77.8784 17.2753Z" fill="#FF4B4B"/>
<path d="M1.53722 35V23.4364H4.97877V35H1.53722ZM3.258 22.1057C2.64617 22.1057 2.14905 21.9298 1.76666 21.578C1.38427 21.2262 1.19307 20.7826 1.19307 20.2472C1.19307 19.6966 1.38427 19.2454 1.76666 18.8936C2.14905 18.5418 2.64617 18.3659 3.258 18.3659C3.88512 18.3659 4.38988 18.5418 4.77228 18.8936C5.16997 19.2454 5.36881 19.6966 5.36881 20.2472C5.36881 20.7826 5.16997 21.2262 4.77228 21.578C4.38988 21.9298 3.88512 22.1057 3.258 22.1057ZM10.5353 35.2753C9.44926 35.2753 8.50857 35.1071 7.71319 34.7706C6.9331 34.4188 6.31362 33.9446 5.85475 33.3481C5.41117 32.7515 5.15879 32.0785 5.09761 31.329H8.51621C8.5774 31.589 8.68447 31.8261 8.83742 32.0403C9.00568 32.2391 9.22747 32.3997 9.50279 32.5221C9.79341 32.6292 10.1146 32.6827 10.4664 32.6827C10.8488 32.6827 11.1547 32.6368 11.3842 32.545C11.6289 32.438 11.8125 32.3003 11.9348 32.132C12.0572 31.9638 12.1184 31.7879 12.1184 31.6043C12.1184 31.3137 12.0266 31.0919 11.843 30.939C11.6748 30.786 11.4224 30.6637 11.0859 30.5719C10.7494 30.4648 10.3441 30.3654 9.86989 30.2736C9.31924 30.1512 8.76859 30.0136 8.21795 29.8606C7.6826 29.6924 7.20078 29.4859 6.7725 29.2411C6.35951 28.9964 6.023 28.6829 5.76298 28.3005C5.51824 27.9028 5.39588 27.4209 5.39588 26.855C5.39588 26.1667 5.58708 25.5472 5.96947 24.9966C6.35186 24.4306 6.90251 23.9871 7.62141 23.6658C8.34031 23.3293 9.21217 23.1611 10.237 23.1611C11.6901 23.1611 12.8296 23.4823 13.6556 24.1247C14.4816 24.7671 14.971 25.6313 15.124 26.7173H11.9119C11.8201 26.4114 11.6289 26.182 11.3383 26.029C11.0477 25.8608 10.6806 25.7767 10.237 25.7767C9.73223 25.7767 9.34983 25.8608 9.08981 26.029C8.82978 26.1973 8.69976 26.4191 8.69976 26.6944C8.69976 26.878 8.78389 27.0462 8.95214 27.1992C9.13569 27.3368 9.39572 27.4592 9.73223 27.5663C10.0687 27.6733 10.4817 27.7804 10.9712 27.8875C11.9042 28.0863 12.7073 28.3005 13.3803 28.5299C14.0686 28.7593 14.6039 29.0958 14.9863 29.5394C15.3687 29.9677 15.5523 30.5948 15.537 31.4208C15.5523 32.1703 15.3534 32.8356 14.9404 33.4169C14.5427 33.9981 13.9692 34.457 13.2197 34.7935C12.4702 35.1147 11.5754 35.2753 10.5353 35.2753Z" fill="#00D287"/>
<path d="M21.5262 35.2753C20.3331 35.2753 19.2777 35.0153 18.3599 34.4952C17.4575 33.9752 16.7462 33.2639 16.2262 32.3615C15.7214 31.459 15.469 30.4266 15.469 29.2641C15.469 28.071 15.7214 27.0233 16.2262 26.1208C16.7462 25.2031 17.4575 24.4842 18.3599 23.9641C19.2777 23.4288 20.3331 23.1611 21.5262 23.1611C23.0404 23.1611 24.31 23.5588 25.3348 24.3541C26.3749 25.1495 27.0326 26.2585 27.308 27.681H23.6599C23.5223 27.1915 23.2622 26.8091 22.8798 26.5338C22.4974 26.2585 22.0386 26.1208 21.5032 26.1208C20.9985 26.1208 20.5549 26.2508 20.1725 26.5109C19.8054 26.7556 19.5148 27.115 19.3006 27.5892C19.0865 28.0481 18.9794 28.5911 18.9794 29.2182C18.9794 29.6924 19.0406 30.1207 19.163 30.503C19.2853 30.8854 19.4536 31.2143 19.6677 31.4896C19.8972 31.7649 20.1648 31.9791 20.4707 32.132C20.7767 32.2697 21.1208 32.3385 21.5032 32.3385C21.8703 32.3385 22.1915 32.2774 22.4668 32.155C22.7575 32.0326 23.0022 31.8567 23.201 31.6273C23.4152 31.3978 23.5681 31.1149 23.6599 30.7784H27.308C27.0326 32.155 26.3749 33.2486 25.3348 34.0593C24.2947 34.87 23.0251 35.2753 21.5262 35.2753ZM33.2317 35.2753C32.1151 35.2753 31.1133 35.0153 30.2261 34.4952C29.3389 33.9752 28.6353 33.2639 28.1153 32.3615C27.5952 31.4437 27.3352 30.4036 27.3352 29.2411C27.3352 28.0481 27.5952 27.0003 28.1153 26.0979C28.6353 25.1801 29.3389 24.4612 30.2261 23.9412C31.1285 23.4211 32.1304 23.1611 33.2317 23.1611C34.3636 23.1611 35.3731 23.4211 36.2603 23.9412C37.1474 24.4612 37.851 25.1801 38.3711 26.0979C38.8911 27.0003 39.1512 28.0404 39.1512 29.2182C39.1512 30.396 38.8911 31.4437 38.3711 32.3615C37.851 33.2639 37.1474 33.9752 36.2603 34.4952C35.3731 35.0153 34.3636 35.2753 33.2317 35.2753ZM33.2317 32.2927C33.6906 32.2927 34.0959 32.1779 34.4477 31.9485C34.8148 31.7191 35.1054 31.3749 35.3196 30.916C35.5337 30.4572 35.6408 29.8912 35.6408 29.2182C35.6408 28.5452 35.5337 27.9792 35.3196 27.5204C35.1054 27.0615 34.8225 26.7173 34.4707 26.4879C34.1189 26.2585 33.7135 26.1438 33.2547 26.1438C32.7958 26.1438 32.3828 26.2585 32.0157 26.4879C31.6639 26.7173 31.3809 27.0615 31.1668 27.5204C30.9526 27.9792 30.8456 28.5452 30.8456 29.2182C30.8456 29.8912 30.9526 30.4572 31.1668 30.916C31.3809 31.3749 31.6639 31.7191 32.0157 31.9485C32.3828 32.1779 32.7881 32.2927 33.2317 32.2927ZM45.0531 35.2753C43.9365 35.2753 42.9346 35.0153 42.0475 34.4952C41.1603 33.9752 40.4567 33.2639 39.9366 32.3615C39.4166 31.4437 39.1566 30.4036 39.1566 29.2411C39.1566 28.0481 39.4166 27.0003 39.9366 26.0979C40.4567 25.1801 41.1603 24.4612 42.0475 23.9412C42.9499 23.4211 43.9518 23.1611 45.0531 23.1611C46.185 23.1611 47.1945 23.4211 48.0816 23.9412C48.9688 24.4612 49.6724 25.1801 50.1924 26.0979C50.7125 27.0003 50.9725 28.0404 50.9725 29.2182C50.9725 30.396 50.7125 31.4437 50.1924 32.3615C49.6724 33.2639 48.9688 33.9752 48.0816 34.4952C47.1945 35.0153 46.185 35.2753 45.0531 35.2753ZM45.0531 32.2927C45.5119 32.2927 45.9173 32.1779 46.2691 31.9485C46.6362 31.7191 46.9268 31.3749 47.1409 30.916C47.3551 30.4572 47.4621 29.8912 47.4621 29.2182C47.4621 28.5452 47.3551 27.9792 47.1409 27.5204C46.9268 27.0615 46.6438 26.7173 46.292 26.4879C45.9402 26.2585 45.5349 26.1438 45.076 26.1438C44.6171 26.1438 44.2042 26.2585 43.8371 26.4879C43.4853 26.7173 43.2023 27.0615 42.9881 27.5204C42.774 27.9792 42.6669 28.5452 42.6669 29.2182C42.6669 29.8912 42.774 30.4572 42.9881 30.916C43.2023 31.3749 43.4853 31.7191 43.8371 31.9485C44.2042 32.1779 44.6095 32.2927 45.0531 32.2927ZM51.3221 35V18.4806H54.7636V35H51.3221Z" fill="#1E88E5"/>
<path d="M52.9044 33.6665V19.238M52.9044 33.6665H67.3328M52.9044 33.6665L63.3249 23.2459M52.9044 33.6665L66.5312 28.0554M52.9044 33.6665L58.5154 20.0396" stroke="#1E88E5" stroke-width="1.60316"/>
<rect x="51.3012" y="32.0632" width="16.0316" height="3.20632" fill="#1E88E5"/>
</svg>
