<svg width="47" height="27" viewBox="0 0 47 27" fill="none" xmlns="http://www.w3.org/2000/svg">
<path d="M6.58483 26.3229C5.45294 26.3229 4.47401 26.1853 3.64804 25.9099C2.82207 25.6499 2.17965 25.2522 1.72077 24.7169C1.2772 24.1815 1.05541 23.5085 1.05541 22.6978C1.05541 22.1166 1.20837 21.5736 1.51428 21.0688C1.83549 20.5641 2.28672 20.1205 2.86796 19.7381C3.44919 19.3404 4.14515 19.0116 4.95583 18.7515L6.10301 20.4952C5.43 20.6941 4.92524 20.9541 4.58873 21.2753C4.26752 21.5965 4.10691 21.956 4.10691 22.3537C4.10691 22.6596 4.21398 22.9196 4.42812 23.1338C4.64226 23.3479 4.93288 23.5085 5.29998 23.6156C5.68238 23.7226 6.10301 23.7762 6.56188 23.7762C7.00546 23.7762 7.38785 23.7226 7.70906 23.6156C8.04557 23.5085 8.3056 23.3479 8.48915 23.1338C8.68799 22.9349 8.78742 22.6902 8.78742 22.3996C8.78742 22.0172 8.6574 21.7113 8.39737 21.4818C8.13735 21.2524 7.60199 21.1071 6.79132 21.0459C6.04183 20.9847 5.36116 20.9006 4.74933 20.7935C4.1528 20.6711 3.61745 20.5258 3.14328 20.3576C2.68441 20.1893 2.28672 20.0058 1.95021 19.8069C1.6137 19.6081 1.35367 19.4092 1.17013 19.2104V18.6827L3.69393 15.9065L6.05712 16.6407L3.00562 19.7381L4.06102 17.9944C4.21398 18.0862 4.37459 18.1779 4.54284 18.2697C4.71109 18.3462 4.91759 18.415 5.16232 18.4762C5.40705 18.5374 5.71297 18.5986 6.08007 18.6597C6.44716 18.7056 6.92133 18.7592 7.50257 18.8204C8.4968 18.9121 9.31512 19.1033 9.95754 19.3939C10.6153 19.6693 11.0971 20.0517 11.403 20.5411C11.7242 21.0306 11.8848 21.6271 11.8848 22.3307C11.8848 23.019 11.6936 23.6691 11.3112 24.2809C10.9288 24.8928 10.3476 25.3822 9.5675 25.7493C8.78742 26.1317 7.79319 26.3229 6.58483 26.3229ZM6.60777 17.6502C5.64414 17.6502 4.81052 17.459 4.10691 17.0766C3.40331 16.6942 2.86031 16.1895 2.47791 15.5624C2.09552 14.9199 1.90432 14.201 1.90432 13.4057C1.90432 12.6256 2.09552 11.922 2.47791 11.2948C2.86031 10.6524 3.40331 10.14 4.10691 9.75762C4.81052 9.35993 5.64414 9.16108 6.60777 9.16108C7.5867 9.16108 8.42797 9.35993 9.13157 9.75762C9.83518 10.14 10.3705 10.6524 10.7376 11.2948C11.1047 11.922 11.2883 12.6256 11.2883 13.4057C11.2883 14.201 11.1047 14.9199 10.7376 15.5624C10.3705 16.1895 9.83518 16.6942 9.13157 17.0766C8.42797 17.459 7.5867 17.6502 6.60777 17.6502ZM6.60777 15.0576C7.12783 15.0576 7.55611 14.9199 7.89261 14.6446C8.22912 14.3693 8.39737 13.9639 8.39737 13.4286C8.39737 12.8932 8.22912 12.4879 7.89261 12.2126C7.55611 11.9373 7.12783 11.7996 6.60777 11.7996C6.08771 11.7996 5.65178 11.9373 5.29998 12.2126C4.96347 12.4879 4.79522 12.8932 4.79522 13.4286C4.79522 13.9639 4.96347 14.3693 5.29998 14.6446C5.65178 14.9199 6.08771 15.0576 6.60777 15.0576ZM8.53503 11.7996L8.03028 9.4364H12.8255V11.3866L8.53503 11.7996Z" fill="#FF4B4B"/>
<path d="M12.7205 21V9.4364H16.162V21H12.7205ZM14.4412 8.10567C13.8294 8.10567 13.3323 7.92977 12.9499 7.57797C12.5675 7.22617 12.3763 6.78259 12.3763 6.24724C12.3763 5.69659 12.5675 5.24537 12.9499 4.89356C13.3323 4.54176 13.8294 4.36586 14.4412 4.36586C15.0684 4.36586 15.5731 4.54176 15.9555 4.89356C16.3532 5.24537 16.552 5.69659 16.552 6.24724C16.552 6.78259 16.3532 7.22617 15.9555 7.57797C15.5731 7.92977 15.0684 8.10567 14.4412 8.10567Z" fill="#00D287"/>
<path d="M21.2596 21.2753C20.1736 21.2753 19.2329 21.1071 18.4375 20.7706C17.6575 20.4188 17.038 19.9446 16.5791 19.3481C16.1355 18.7515 15.8832 18.0785 15.822 17.329H19.2406C19.3018 17.589 19.4088 17.8261 19.5618 18.0403C19.73 18.2391 19.9518 18.3997 20.2272 18.5221C20.5178 18.6292 20.839 18.6827 21.1908 18.6827C21.5732 18.6827 21.8791 18.6368 22.1085 18.545C22.3533 18.438 22.5368 18.3003 22.6592 18.132C22.7815 17.9638 22.8427 17.7879 22.8427 17.6043C22.8427 17.3137 22.751 17.0919 22.5674 16.939C22.3991 16.786 22.1468 16.6637 21.8103 16.5719C21.4738 16.4648 21.0684 16.3654 20.5942 16.2736C20.0436 16.1512 19.493 16.0136 18.9423 15.8606C18.407 15.6924 17.9251 15.4859 17.4969 15.2411C17.0839 14.9964 16.7474 14.6829 16.4873 14.3005C16.2426 13.9028 16.1202 13.4209 16.1202 12.855C16.1202 12.1667 16.3114 11.5472 16.6938 10.9966C17.0762 10.4306 17.6269 9.98705 18.3458 9.66584C19.0647 9.32933 19.9365 9.16108 20.9613 9.16108C22.4144 9.16108 23.554 9.48229 24.38 10.1247C25.2059 10.7671 25.6954 11.6313 25.8483 12.7173H22.6362C22.5445 12.4114 22.3533 12.182 22.0626 12.029C21.772 11.8608 21.4049 11.7767 20.9613 11.7767C20.4566 11.7767 20.0742 11.8608 19.8142 12.029C19.5541 12.1973 19.4241 12.4191 19.4241 12.6944C19.4241 12.878 19.5083 13.0462 19.6765 13.1992C19.8601 13.3368 20.1201 13.4592 20.4566 13.5663C20.7931 13.6733 21.2061 13.7804 21.6955 13.8875C22.6286 14.0863 23.4316 14.3005 24.1046 14.5299C24.7929 14.7593 25.3283 15.0958 25.7107 15.5394C26.0931 15.9677 26.2766 16.5948 26.2613 17.4208C26.2766 18.1703 26.0778 18.8356 25.6648 19.4169C25.2671 19.9981 24.6935 20.457 23.944 20.7935C23.1945 21.1147 22.2997 21.2753 21.2596 21.2753Z" fill="#1E88E5"/>
<path d="M32.5715 21.2301H47M32.5715 21.2301L42.9921 10.8096M32.5715 21.2301L46.1984 15.6191M32.5715 21.2301L38.1826 7.60327" stroke="#1E88E5" stroke-width="1.60316"/>
<rect x="30.9684" y="19.627" width="16.0316" height="3.20632" fill="#1E88E5"/>
<rect x="30.1636" y="22.4363" width="16" height="3" transform="rotate(-90 30.1636 22.4363)" fill="#1E88E5"/>
</svg>
